<?xml version="1.0" encoding="UTF-8" standalone="no" ?>
<!DOCTYPE svg PUBLIC "-//W3C//DTD SVG 1.1//EN" "http://www.w3.org/Graphics/SVG/1.1/DTD/svg11.dtd">
<svg xmlns="http://www.w3.org/2000/svg" xmlns:xlink="http://www.w3.org/1999/xlink" version="1.1" width="1799.7088112424954" height="2000" viewBox="0 0 1799.7088112424954 2000" xml:space="preserve">
<desc>Created with Fabric.js 5.3.0</desc>
<defs>
</defs>
<g transform="matrix(1 0 0 1 899.8544056212477 1000)" id="background-logo"  >
<rect style="stroke: none; stroke-width: 0; stroke-dasharray: none; stroke-linecap: butt; stroke-dashoffset: 0; stroke-linejoin: miter; stroke-miterlimit: 4; fill: rgb(255,255,255); fill-opacity: 0; fill-rule: nonzero; opacity: 1;"  paint-order="stroke"  x="-2521.0351435447224" y="-2016.828114835778" rx="0" ry="0" width="5042.070287089445" height="4033.656229671556" />
</g>
<g transform="matrix(7.757031210906838 0 0 7.757031210906838 898.29698559216 762.0906888758284)" id="logo-logo"  >
<g style=""  paint-order="stroke"   >
		<g transform="matrix(1.0864998001183572 0 0 -1.0864998001183572 0 24.190751634569523)"  >
<linearGradient id="SVGID_1251771" gradientUnits="userSpaceOnUse" gradientTransform="matrix(1 0 0 1 -145.48782856858816 -119.68006360098447)"  x1="0" y1="0" x2="0" y2="135">
<stop offset="0%" style="stop-color:rgb(66,230,149);stop-opacity: 1"/>
<stop offset="100%" style="stop-color:rgb(59,178,184);stop-opacity: 1"/>
</linearGradient>
<path style="stroke: none; stroke-width: 1; stroke-dasharray: none; stroke-linecap: butt; stroke-dashoffset: 0; stroke-linejoin: miter; stroke-miterlimit: 4; fill: url(#SVGID_1251771); fill-rule: evenodd; opacity: 1;"  paint-order="stroke"  transform=" translate(67.39237052003182, 52.021378634273816)" d="M 0 0 C -2.951 5.108 -6.38 9.767 -10.201 13.955 C -11.489 15.643 -13.866 16.153 -15.75 15.061 C -17.805 13.877 -18.508 11.253 -17.322 9.2 C -17.128999999999998 8.867999999999999 -16.897 8.569999999999999 -16.641 8.309999999999999 C -13.178999999999998 4.539999999999999 -10.076999999999998 0.3329999999999984 -7.409999999999998 -4.283000000000001 C 2.421000000000001 -21.312 4.422000000000002 -40.719 -0.29499999999999815 -58.322 C -5.011999999999998 -75.928 -16.447 -91.732 -33.479 -101.566 C -50.507999999999996 -111.4 -69.912 -113.396 -87.519 -108.679 C -105.123 -103.964 -120.927 -92.529 -130.761 -75.499 C -133.428 -70.881 -135.516 -66.091 -137.053 -61.208 C -137.147 -60.854 -137.289 -60.504999999999995 -137.482 -60.173 C -138.665 -58.120000000000005 -141.292 -57.417 -143.342 -58.603 C -145.23100000000002 -59.693000000000005 -145.977 -62.005 -145.15900000000002 -63.966 C -143.44400000000002 -69.368 -141.12300000000002 -74.667 -138.174 -79.779 C -127.16000000000001 -98.856 -109.45400000000001 -111.663 -89.73500000000001 -116.949 C -70.01400000000001 -122.232 -48.274000000000015 -119.994 -29.197000000000017 -108.979 C -10.12 -97.965 2.689 -80.258 7.97 -60.538 C 13.256 -40.816 11.018 -19.08 0 0" stroke-linecap="round" />
</g>
		<g transform="matrix(1.0864998001183572 0 0 -1.0864998001183572 -1.9608382192530485 -8.945730655502928)"  >
<linearGradient id="SVGID_1251772" gradientUnits="userSpaceOnUse" gradientTransform="matrix(1 0 0 1 -26.601 -90.508)"  x1="0" y1="0" x2="0" y2="163">
<stop offset="0%" style="stop-color:rgb(66,230,149);stop-opacity: 1"/>
<stop offset="100%" style="stop-color:rgb(59,178,184);stop-opacity: 1"/>
</linearGradient>
<path style="stroke: none; stroke-width: 1; stroke-dasharray: none; stroke-linecap: butt; stroke-dashoffset: 0; stroke-linejoin: miter; stroke-miterlimit: 4; fill: url(#SVGID_1251772); fill-rule: evenodd; opacity: 1;"  paint-order="stroke"  transform=" translate(-37.4875, 8.817999999999998)" d="M 0 0 L 5.573 0 L 9.914 0 L 9.914 -26.636 L -1.642 -26.636 L -1.642 -26.394 L -1.642 -7.023999999999997 L -1.642 0 Z M 33.418 25.938 L 50.752 25.938 L 50.752 12.05 L 50.752 7.768 L 50.752 -7.518 L 50.752 -26.636 L 33.418 -26.636 Z M -7.813 -71.72 C 3.793 -83.328 19.826 -90.508 37.54 -90.508 C 55.248999999999995 -90.508 71.283 -83.328 82.89099999999999 -71.72 C 93.511 -61.101 100.42299999999999 -46.778 101.51799999999999 -30.853 C 101.55599999999998 -30.630000000000003 101.576 -30.403000000000002 101.576 -30.169 C 101.576 -27.8 99.65499999999999 -25.879 97.28299999999999 -25.879 C 94.98599999999999 -25.879 93.10799999999999 -27.69 93.00099999999999 -29.962000000000003 C 92.11 -43.877 86.105 -56.403 76.838 -65.67 C 66.781 -75.726 52.888 -81.947 37.54 -81.947 C 22.192 -81.947 8.293 -75.726 -1.759999999999998 -65.67 C -11.819999999999999 -55.611000000000004 -18.038999999999998 -41.717 -18.038999999999998 -26.370000000000005 L -18.041999999999998 -26.370000000000005 L -18.041999999999998 -24.344 L -18.041999999999998 0 L -10.203999999999997 0 L -10.203999999999997 -30.676 L -10.203999999999997 -35.195 L -9.986999999999997 -35.195 L -5.923999999999997 -35.195 L -1.6419999999999968 -35.195 L 14.196000000000002 -35.195 L 18.473000000000003 -35.195 L 18.473000000000003 -30.916 L 18.473000000000003 4.28 L 18.473000000000003 8.56 L 14.196 8.56 L 5.573 8.56 L 0 8.56 L -1.642 8.56 L -1.642 46.951 L 24.64 59.935 L 24.64 -7.024 L 24.64 -35.195 L 24.854 -35.195 L 29.136 -35.195 L 33.199 -35.195 L 43.626 -35.195 L 50.751999999999995 -35.195 L 55.028999999999996 -35.195 L 59.312 -35.195 L 59.312 -30.917 L 59.312 -26.636000000000003 L 59.312 -9.919000000000004 L 59.312 3.490999999999996 L 69.14699999999999 3.490999999999996 L 69.14699999999999 -9.919000000000004 L 69.14699999999999 -26.636000000000003 L 69.14699999999999 -35.195 L 73.42999999999999 -35.195 L 77.707 -35.195 L 77.707 -30.917 L 77.707 7.768000000000001 L 77.707 12.05 L 73.43 12.05 L 59.312 12.05 L 59.312 30.218 L 59.312 34.498 L 55.029 34.498 L 33.199 34.498 L 33.199 72.872 L -10.204 51.13 L -10.204 8.56 L -22.321 8.56 L -26.601000000000003 8.56 L -26.601000000000003 4.28 L -26.601000000000003 -27.794 L -26.565 -27.794 C -26.19 -44.936 -19.108 -60.426 -7.813000000000002 -71.72" stroke-linecap="round" />
</g>
		<g transform="matrix(1.0864998001183572 0 0 -1.0864998001183572 -2.3209042530123725 50.60184658962382)"  >
<linearGradient id="SVGID_1251773" gradientUnits="userSpaceOnUse" gradientTransform="matrix(1 0 0 1 -4.283000000000001 -8.562999999999999)"  x1="0" y1="0" x2="0" y2="9">
<stop offset="0%" style="stop-color:rgb(66,230,149);stop-opacity: 1"/>
<stop offset="100%" style="stop-color:rgb(59,178,184);stop-opacity: 1"/>
</linearGradient>
<path style="stroke: none; stroke-width: 1; stroke-dasharray: none; stroke-linecap: butt; stroke-dashoffset: 0; stroke-linejoin: miter; stroke-miterlimit: 4; fill: url(#SVGID_1251773); fill-rule: evenodd; opacity: 1;"  paint-order="stroke"  transform=" translate(-17.534, 4.281499999999999)" d="M 0 0 C -2.356 0 -4.283 -1.927 -4.283 -4.279 C -4.283 -6.636 -2.3560000000000003 -8.562999999999999 0 -8.562999999999999 L 35.074 -8.562999999999999 C 37.424 -8.562999999999999 39.351 -6.635999999999999 39.351 -4.278999999999999 C 39.351 -1.927 37.43 0 35.074 0 Z" stroke-linecap="round" />
</g>
		<g transform="matrix(1.0864998001183572 0 0 -1.0864998001183572 -2.320795603032309 33.849866721458994)"  >
<linearGradient id="SVGID_1251774" gradientUnits="userSpaceOnUse" gradientTransform="matrix(1 0 0 1 -71.377 -4.279)"  x1="0" y1="0" x2="0" y2="9">
<stop offset="0%" style="stop-color:rgb(66,230,149);stop-opacity: 1"/>
<stop offset="100%" style="stop-color:rgb(59,178,184);stop-opacity: 1"/>
</linearGradient>
<path style="stroke: none; stroke-width: 1; stroke-dasharray: none; stroke-linecap: butt; stroke-dashoffset: 0; stroke-linejoin: miter; stroke-miterlimit: 4; fill: url(#SVGID_1251774); fill-rule: evenodd; opacity: 1;"  paint-order="stroke"  transform=" translate(35.6885, -0.002000000000000668)" d="M 0 0 C 0 2.354 -1.926 4.283 -4.276 4.283 L -67.098 4.283 C -69.453 4.283 -71.377 2.354 -71.377 0 C -71.377 -2.354 -69.451 -4.279 -67.098 -4.279 L -4.276 -4.279 C -1.926 -4.279 0 -2.354 0 0" stroke-linecap="round" />
</g>
</g>
</g>
<g transform="matrix(7.757031210906838 0 0 7.757031210906838 899.8544056212477 1810.612082985709)" id="text-logo"  >
<g style=""  paint-order="stroke"   >
		<g transform="matrix(1 0 0 1 0 0)" id="text-logo-path-0"  >
<linearGradient id="SVGID_1251775" gradientUnits="userSpaceOnUse" gradientTransform="matrix(1 0 0 1 2.3400000000000034 -35.19)"  x1="-2.383964843749993" y1="-7.883035781249987" x2="-2.383964843749993" y2="47.11696421875001">
<stop offset="0%" style="stop-color:rgb(23,234,217);stop-opacity: 1"/>
<stop offset="100%" style="stop-color:rgb(96,120,234);stop-opacity: 1"/>
</linearGradient>
<path style="stroke: none; stroke-width: 0; stroke-dasharray: none; stroke-linecap: butt; stroke-dashoffset: 0; stroke-linejoin: miter; stroke-miterlimit: 4; fill: url(#SVGID_1251775); fill-rule: nonzero; opacity: 1;"  paint-order="stroke"  transform=" translate(-118.345, 10.774999999999999)" d="M 2.34 -17.15 L 2.34 -17.15 C 2.34 -22.63 4.09 -26.99 7.56 -30.19 C 11.03 -33.38 15.72 -34.98 21.63 -34.98 L 21.63 -34.98 C 27.51 -34.98 32.2 -33.38 35.67 -30.19 C 39.14 -26.99 40.87 -22.63 40.87 -17.15 L 40.87 -17.15 C 40.87 -12.85 39.76 -9.21 37.56 -6.27 C 35.36 -3.33 32.3 -1.29 28.4 -0.19 L 28.4 -0.19 C 31.25 0.41 35.89 1.91 42.28 4.35 L 42.28 4.35 C 42.44 4.43 42.59 4.47 42.71 4.5 C 42.8 4.55 42.92 4.59 43.09 4.64 C 43.23 4.71 43.38 4.76 43.5 4.81 L 43.5 4.81 C 47.4 6.34 51.18 7.11 54.81 7.11 L 54.81 7.11 C 55.27 7.11 55.7 7.11 56.13 7.08 L 56.13 7.08 C 60.17 6.87 63.52 5.69 66.2 3.52 L 66.2 3.52 L 66.49 3.73 C 66.32 6.36 65.1 8.61 62.78 10.48 C 60.46 12.35 57.4 13.4 53.59 13.61 L 53.59 13.61 C 53.26 13.64 52.92 13.64 52.59 13.64 L 52.59 13.64 C 49.02 13.64 44.98 12.56 40.46 10.38 L 40.46 10.38 C 39 9.64 37.3 8.66 35.36 7.44 C 33.42 6.22 31.77 5.19 30.46 4.33 C 29.14 3.49 27.63 2.7 25.98 1.99 C 24.33 1.27 22.78 0.84 21.34 0.69 L 21.34 0.69 C 15.53 0.65 10.91 -0.98 7.49 -4.19 C 4.07 -7.39 2.34 -11.72 2.34 -17.15 Z M 13.4 -28.69 C 11.36 -25.86 10.36 -22.01 10.36 -17.15 C 10.36 -12.3 11.36 -8.45 13.4 -5.62 C 15.43 -2.78 18.16 -1.36 21.63 -1.36 C 25.1 -1.36 27.83 -2.78 29.84 -5.62 C 31.85 -8.45 32.85 -12.3 32.85 -17.15 C 32.85 -22.01 31.85 -25.86 29.84 -28.69 C 27.83 -31.51 25.1 -32.92 21.63 -32.92 L 21.63 -32.92 C 18.16 -32.92 15.41 -31.51 13.4 -28.69 Z M 67.55 0 L 52.67 0 L 52.67 -0.48 L 53.29 -0.48 C 54.15 -0.48 54.89 -0.79 55.49 -1.39 C 56.09 -1.99 56.4 -2.73 56.42 -3.56 L 56.42 -3.56 L 56.42 -30.74 C 56.4 -31.58 56.06 -32.32 55.47 -32.92 C 54.87 -33.52 54.13 -33.81 53.29 -33.81 L 53.29 -33.81 L 52.67 -33.81 L 52.67 -34.31 L 67.55 -34.31 L 67.52 -33.81 L 66.9 -33.81 C 66.07 -33.81 65.32 -33.52 64.73 -32.92 C 64.13 -32.32 63.79 -31.58 63.77 -30.74 L 63.77 -30.74 L 63.77 -18.11 L 79.65 -18.11 L 79.65 -30.74 C 79.63 -31.58 79.3 -32.32 78.7 -32.92 C 78.1 -33.52 77.36 -33.81 76.52 -33.81 L 76.52 -33.81 L 75.9 -33.81 L 75.9 -34.31 L 90.78 -34.31 L 90.78 -33.81 L 90.16 -33.81 C 89.3 -33.81 88.56 -33.52 87.96 -32.92 C 87.36 -32.32 87.05 -31.58 87.02 -30.74 L 87.02 -30.74 L 87.02 -3.56 C 87.05 -2.73 87.36 -1.99 87.96 -1.39 C 88.56 -0.79 89.3 -0.48 90.16 -0.48 L 90.16 -0.48 L 90.78 -0.48 L 90.78 0 L 75.9 0 L 75.9 -0.48 L 76.52 -0.48 C 77.36 -0.48 78.1 -0.79 78.7 -1.39 C 79.3 -1.99 79.63 -2.7 79.65 -3.54 L 79.65 -3.54 L 79.65 -16.03 L 63.77 -16.03 L 63.77 -3.56 C 63.79 -2.73 64.1 -1.99 64.7 -1.39 C 65.3 -0.79 66.04 -0.48 66.9 -0.48 L 66.9 -0.48 L 67.52 -0.48 L 67.55 0 Z M 107.8 -4.12 C 104.33 -7.32 102.58 -11.68 102.58 -17.15 C 102.58 -22.63 104.33 -26.99 107.8 -30.19 C 111.27 -33.38 115.96 -34.98 121.87 -34.98 C 127.78 -34.98 132.46 -33.38 135.93 -30.19 C 139.4 -26.99 141.13 -22.63 141.13 -17.15 C 141.13 -11.68 139.38 -7.32 135.93 -4.12 C 132.46 -0.91 127.78 0.69 121.87 0.69 C 115.96 0.69 111.27 -0.91 107.8 -4.12 Z M 113.66 -28.69 C 111.63 -25.86 110.62 -22.01 110.62 -17.15 C 110.62 -12.3 111.63 -8.45 113.66 -5.62 C 115.67 -2.78 118.4 -1.36 121.87 -1.36 C 125.34 -1.36 128.06 -2.78 130.07 -5.62 C 132.08 -8.45 133.09 -12.3 133.09 -17.15 C 133.09 -22.01 132.08 -25.86 130.07 -28.69 C 128.06 -31.51 125.34 -32.92 121.87 -32.92 C 118.4 -32.92 115.67 -31.51 113.66 -28.69 Z M 160.42 0 L 150.18 0 L 150.18 -0.48 L 150.94 -0.48 C 151.85 -0.48 152.64 -0.77 153.33 -1.32 C 154 -1.87 154.41 -2.63 154.53 -3.56 L 154.53 -3.56 L 158.6 -34.98 L 159.05 -34.98 L 174.25 -9.98 L 188.82 -34.98 L 189.27 -34.98 L 193.46 -3.56 C 193.63 -2.63 194.03 -1.89 194.7 -1.34 C 195.35 -0.79 196.14 -0.5 197.02 -0.5 L 197.02 -0.5 L 197.81 -0.5 L 197.81 0 L 183.07 0 L 183.07 -0.45 L 183.84 -0.45 C 184.37 -0.43 184.84 -0.65 185.25 -1.1 L 185.25 -1.1 C 185.61 -1.48 185.78 -1.89 185.78 -2.34 L 185.78 -2.34 C 185.78 -2.42 185.78 -2.49 185.75 -2.56 L 185.75 -2.56 L 183.82 -20.31 L 174.63 -4.43 C 174.48 -4.21 174.32 -3.9 174.13 -3.54 C 173.91 -3.16 173.65 -2.49 173.29 -1.53 C 172.93 -0.55 172.76 0.29 172.74 0.98 L 172.74 0.98 L 172.28 0.98 L 159.67 -20.19 L 157.74 -2.56 C 157.71 -2.49 157.71 -2.42 157.71 -2.34 L 157.71 -2.34 C 157.74 -1.89 157.9 -1.48 158.26 -1.1 L 158.26 -1.1 C 158.67 -0.65 159.15 -0.43 159.65 -0.45 L 159.65 -0.45 L 160.42 -0.45 L 160.42 0 Z M 232.1 0 L 206.74 0 L 206.74 -0.48 L 207.36 -0.48 C 208.23 -0.48 208.97 -0.79 209.57 -1.39 C 210.16 -1.99 210.47 -2.73 210.5 -3.56 L 210.5 -3.56 L 210.5 -30.89 C 210.43 -31.7 210.09 -32.4 209.52 -32.97 C 208.92 -33.52 208.2 -33.81 207.36 -33.81 L 207.36 -33.81 L 206.74 -33.81 L 206.74 -34.31 L 225.52 -34.31 C 226.55 -34.33 227.65 -34.43 228.87 -34.62 C 230.07 -34.79 230.91 -34.98 231.39 -35.19 L 231.39 -35.19 L 231.39 -26.63 L 230.88 -26.63 L 230.88 -27.2 C 230.88 -28.66 230.45 -29.86 229.59 -30.77 C 228.73 -31.65 227.56 -32.13 226.1 -32.2 L 226.1 -32.2 L 217.84 -32.2 L 217.84 -17.94 L 224.35 -17.94 C 225.57 -17.97 226.55 -18.38 227.34 -19.16 C 228.11 -19.95 228.49 -20.96 228.49 -22.16 L 228.49 -22.16 L 228.49 -22.56 L 228.97 -22.59 L 228.97 -11.25 L 228.49 -11.27 L 228.49 -11.68 C 228.49 -12.85 228.11 -13.85 227.34 -14.64 C 226.55 -15.43 225.57 -15.86 224.4 -15.89 L 224.4 -15.89 L 217.84 -15.89 L 217.84 -2.11 L 224.28 -2.11 C 226.67 -2.11 228.68 -2.8 230.29 -4.19 C 231.89 -5.55 233.08 -7.49 233.87 -10 L 233.87 -10 L 234.35 -10 L 232.1 0 Z" stroke-linecap="round" />
</g>
</g>
</g>
</svg>