<svg width="28" height="20" viewBox="0 0 28 20" fill="none" xmlns="http://www.w3.org/2000/svg">
<path d="M19.5778 0.5C19.8364 0.500044 20.065 0.57849 20.2164 0.692383C20.3651 0.804255 20.4069 0.920708 20.4069 1C20.4069 1.82843 21.0784 2.5 21.9069 2.5H23.5641C24.5277 2.5 25.4328 2.78928 26.0826 3.27832C26.7296 3.76525 27.0504 4.39032 27.0504 5V17L27.0475 17.1143C27.0099 17.6871 26.6893 18.2651 26.0826 18.7217C25.4328 19.2107 24.5277 19.5 23.5641 19.5H4.95959C3.99619 19.4999 3.0918 19.2106 2.44202 18.7217C1.79493 18.2347 1.47327 17.6097 1.47327 17V5C1.47327 4.39028 1.79493 3.76527 2.44202 3.27832C3.0918 2.78944 3.99619 2.50006 4.95959 2.5H6.6178C7.44616 2.49992 8.1178 1.82838 8.1178 1C8.1178 0.920737 8.15871 0.80422 8.30725 0.692383C8.45869 0.578419 8.68815 0.5 8.9469 0.5C9.2055 0.500075 9.4342 0.578474 9.58557 0.692383C9.73423 0.804254 9.77502 0.920711 9.77502 1C9.77502 1.8283 10.4468 2.49979 11.275 2.5H17.2487C18.0771 2.5 18.7487 1.82843 18.7487 1C18.7487 0.920755 18.7897 0.804197 18.9381 0.692383C19.0896 0.578419 19.319 0.5 19.5778 0.5ZM10.6315 9.5C6.48933 9.5 3.13147 12.8579 3.13147 17C3.13147 17.451 3.36973 17.8432 3.71936 18.1064C4.06626 18.3675 4.51357 18.4999 4.95959 18.5H23.5641C24.0102 18.5 24.4573 18.3675 24.8043 18.1064C25.1541 17.8432 25.3932 17.4511 25.3932 17C25.3932 12.8579 22.0353 9.50008 17.8932 9.5H10.6315ZM4.95959 3.5C4.51357 3.50006 4.06626 3.6325 3.71936 3.89355C3.36973 4.15675 3.13147 4.54896 3.13147 5C3.13147 6.933 4.69847 8.5 6.63147 8.5H21.8932C23.8261 8.49993 25.3932 6.93295 25.3932 5C25.3932 4.54886 25.1541 4.15676 24.8043 3.89355C24.4573 3.63245 24.0102 3.5 23.5641 3.5H21.9069C21.0784 3.5 20.4069 4.17157 20.4069 5C20.4069 5.07929 20.3651 5.19575 20.2164 5.30762C20.065 5.42151 19.8364 5.49996 19.5778 5.5C19.319 5.5 19.0896 5.42158 18.9381 5.30762C18.7897 5.1958 18.7487 5.07925 18.7487 5C18.7487 4.17157 18.0771 3.5 17.2487 3.5H11.275C10.4468 3.50021 9.77502 4.1717 9.77502 5C9.77502 5.07929 9.73423 5.19575 9.58557 5.30762C9.4342 5.42153 9.2055 5.49992 8.9469 5.5C8.68815 5.5 8.45869 5.42158 8.30725 5.30762C8.15871 5.19578 8.1178 5.07926 8.1178 5C8.1178 4.17162 7.44616 3.50008 6.6178 3.5H4.95959Z" fill="white" stroke="#14AE5C"/>
</svg>
