<svg width="29" height="29" viewBox="0 0 29 29" fill="none" xmlns="http://www.w3.org/2000/svg">
<path d="M8.45837 8.4585H7.25004C6.6091 8.4585 5.99441 8.71311 5.5412 9.16632C5.08799 9.61953 4.83337 10.2342 4.83337 10.8752V21.7502C4.83337 22.3911 5.08799 23.0058 5.5412 23.459C5.99441 23.9122 6.6091 24.1668 7.25004 24.1668H18.125C18.766 24.1668 19.3807 23.9122 19.8339 23.459C20.2871 23.0058 20.5417 22.3911 20.5417 21.7502V20.5418" stroke="white" stroke-width="2" stroke-linecap="round" stroke-linejoin="round"/>
<path d="M24.6319 7.957C25.1078 7.48111 25.3751 6.83565 25.3751 6.16263C25.3751 5.48961 25.1078 4.84415 24.6319 4.36825C24.156 3.89236 23.5105 3.625 22.8375 3.625C22.1645 3.625 21.519 3.89236 21.0431 4.36825L10.875 14.5001V18.1251H14.5L24.6319 7.957Z" stroke="white" stroke-width="2" stroke-linecap="round" stroke-linejoin="round"/>
<path d="M19.3334 6.0415L22.9584 9.6665" stroke="white" stroke-width="2" stroke-linecap="round" stroke-linejoin="round"/>
</svg>
