<svg width="34" height="34" viewBox="0 0 34 34" fill="none" xmlns="http://www.w3.org/2000/svg">
<path d="M8.41434 31.1666H25.5861C26.2973 31.1666 26.8739 30.59 26.8739 29.8788V15.2828C26.8739 14.5716 26.2973 13.9949 25.5861 13.9949H24.2982V10.1313C24.2982 6.10719 21.0243 2.83331 17.0002 2.83331C12.9761 2.83331 9.70222 6.10719 9.70222 10.1313V13.9949H8.41434C7.70309 13.9949 7.12646 14.5716 7.12646 15.2828V29.8788C7.12646 30.59 7.70309 31.1666 8.41434 31.1666ZM18.2881 23.0089V24.7272C18.2881 25.4385 17.7115 26.0151 17.0002 26.0151C16.2889 26.0151 15.7123 25.4385 15.7123 24.7272V23.0089C15.1913 22.6169 14.8537 21.9937 14.8537 21.2929C14.8537 20.1093 15.8166 19.1464 17.0002 19.1464C18.1838 19.1464 19.1467 20.1093 19.1467 21.2929C19.1467 21.9937 18.8091 22.6169 18.2881 23.0089ZM12.278 10.1313C12.278 7.52746 14.3964 5.40907 17.0002 5.40907C19.604 5.40907 21.7224 7.52746 21.7224 10.1313V13.9949H12.278V10.1313Z" fill="black" stroke="black" stroke-width="0.00166667"/>
</svg>
